.
 
http://www.scenetime.com    -   SceneTime [ We been having it ] !!!


How come you press harder on a remote control when you know the battery is dead? so you better seed to get speed ;)

        Seed back for speed


...................................NFO:.................................................[pre][img]http://i824.photobucket.com/albums/zz161/akosipalos/SBCover.png[/img]   
            
*******************************************************************************
              Something.Borrowed.2011.480p.BRRip.XviD.AC3-PRESTiGE
*******************************************************************************

-------------------------------------------------------------------------------
                              General Information
-------------------------------------------------------------------------------

TiTLE............: Something.Borrowed.2011.480p.BRRip.XviD.AC3-PRESTiGE

iMDB.............: http://www.imdb.com/title/tt0491152/

GENRE............: Comedy | Drama | Romance 

LANGUAGE.........: English

FORMAT...........: AVi

SOURCE...........: 720p.BluRay.X264-AMIABLE MANY THANKS!!!

FiLE SiZE........: 2.05 GB

SAMPLE iNCLUDED..: YES

SUBS.............: English Subs (If needed)

DURATiON.........: 1h 52mn

ENCODED by.......: [b][color=maroon]akosipalos[/color][/b]



ViDEO iNFO:

ID                               : 0
Format                           : MPEG-4 Visual
Format profile                   : Advanced Simple@L5
Format settings, BVOP            : 2
Format settings, QPel            : No
Format settings, GMC             : No warppoints
Format settings, Matrix          : Default (H.263)
Codec ID                         : XVID
Codec ID/Hint                    : XviD
Duration                         : 1h 52mn
Bit rate                         : 2 155 Kbps
Width                            : 720 pixels
Height                           : 400 pixels
Display aspect ratio             : 16:9
Frame rate                       : 23.976 fps
Color space                      : YUV
Chroma subsampling               : 4:2:0
Bit depth                        : 8 bits
Scan type                        : Progressive
Compression mode                 : Lossy
Bits/(Pixel*Frame)               : 0.312
Stream size                      : 1.70 GiB (83%)
Writing library                  : XviD 1.2.1 (UTC 2008-12-04)


AUDiO iNFO:

ID                               : 1
Format                           : AC-3
Format/Info                      : Audio Coding 3
Mode extension                   : CM (complete main)
Codec ID                         : 2000
Duration                         : 1h 52mn
Bit rate mode                    : Constant
Bit rate                         : 448 Kbps
Channel(s)                       : 6 channels
Channel positions                : Front: L C R, Side: L R, LFE
Sampling rate                    : 48.0 KHz
Bit depth                        : 16 bits
Compression mode                 : Lossy
Stream size                      : 361 MiB (17%)
Alignment                        : Split accross interleaves
Interleave, duration             : 500 ms (11.99 video frames)
Interleave, preload duration     : 500 ms


-------------------------------------------------------------------------------
                                 PLOT:
-------------------------------------------------------------------------------


Rachel is a lawyer. When she was in law school she fell for another student Dex who comes from an affluent family. But she's too shy to say anything. When Dex meets her best friend Darcy who treats her like dirt sometimes, who was visiting her, she makes a move on him and gets him. Eventually they get engaged and Darcy asks Rachel to be her Maid of Honor. But Rachel stills has feelings for Dex and still can't say anything. But when Darcy throws her a birthday party and Dex is there. When she and gets Dex are alone, she blurts out that she had a thing for him in college which surprised him. And after drinking a little they spend the night together. They try to forget the whole thing but can't but agree that it means nothing. But Ethan, Rachel close friend tells her that she'll spend her entire life regretting that if she does nothing.


-------------------------------------------------------------------------------
                                 CAST:
-------------------------------------------------------------------------------


Ginnifer Goodwin..........Rachel  
Kate Hudson...............Darcy  
Colin Egglesfield.........Dex  
John Krasinski............Ethan  
Steve Howey...............Marcus  
Ashley Williams...........Claire  
Geoff Pierson.............Dexter Thaler Sr.  
Jill Eikenberry...........Bridget Thaler  
Jonathan Epstein..........Professor Zigman  
Leia Thompson.............Bridal Consultant  
Sarah Baldwin.............June  
Mark La Mura..............Marcus's Dad  
Lindsay Ryan..............Salesgirl  
Kirsten Day...............Pretty Brunette  
Christopher Peuler........Husband


-------------------------------------------------------------------------------
                               SCREENS:
-------------------------------------------------------------------------------


[img]http://i824.photobucket.com/albums/zz161/akosipalos/sb5.png[/img]

[img]http://i824.photobucket.com/albums/zz161/akosipalos/sb4.png[/img]

[img]http://i824.photobucket.com/albums/zz161/akosipalos/sb3.png[/img]

[img]http://i824.photobucket.com/albums/zz161/akosipalos/sb2.png[/img]

[img]http://i824.photobucket.com/albums/zz161/akosipalos/sb1.png[/img]



-------------------------------------------------------------------------------
                             Release Notes
-------------------------------------------------------------------------------

WE DONT RELEASE EVERYTHING TO OTHERS SITES YOU WANT MORE OF OUR STUFF COME FIND US AT .......

WE ARE LOOKING FOR SUPPLIERS BLURAY CAM R5 PRE RETAIL DVD GOT SOMETHING WE MIGHT LIKE WHEN YOU FIND US TELL US.......



ENCODER'S - ANYTHING AT ALL EMAIL US AT..... prestige@hushmail.me

** ** ** ** ** ** ** ** **

PRESTiGE is the level of respect at which one is regarded by others....RIzE Above Or Sink Below...


-------------------------------------------------------------------------------
                                 GREETZ:
-------------------------------------------------------------------------------


[b]| Twisted | Bigguy | CTFX | Whitestag13 | akosipalos | SeLiNa | RiZAL Team RG | and To All Encoders Past And Present...[/b]


[img]http://i824.photobucket.com/albums/zz161/akosipalos/PRESTiGE.png[/img]


[b][color=red]PRESTiGE[/color] is the level of respect at which one is regarded by others....RIzE Above Or Sink Below...[/b]


-------------------------------------------------------------------------------
Generated with Cool NFO Creator - http://fly.to/coolbeans
-------------------------------------------------------------------------------
[/pre]